<?xml version="1.0" encoding="UTF-8" standalone="no"?>
<!DOCTYPE svg PUBLIC "-//W3C//DTD SVG 1.1//EN" "http://www.w3.org/Graphics/SVG/1.1/DTD/svg11.dtd">
<svg width="100%" height="100%" viewBox="0 0 805 822" version="1.1" xmlns="http://www.w3.org/2000/svg" xmlns:xlink="http://www.w3.org/1999/xlink" xml:space="preserve" xmlns:serif="http://www.serif.com/" style="fill-rule:evenodd;clip-rule:evenodd;stroke-linejoin:round;stroke-miterlimit:2;">
    <g transform="matrix(1,0,0,1,-2286.47,-89.393)">
        <g transform="matrix(1,0,0,1,2200,0)">
            <g transform="matrix(0.821214,0,0,0.821214,-1717.28,89.393)">
                <path d="M2700,0C2819.31,0 2925.16,46.765 3014.9,111.723C3170.72,224.512 3156.52,275.194 3174.59,482.701C3188.43,641.585 3102.5,831.307 3043.51,886.985C2963.81,962.213 2816.59,1000 2700,1000C2522.48,1000 2274.78,945.636 2236.33,784.747C2211.12,679.266 2187.22,597.601 2200,500C2226.03,301.175 2276.3,154.19 2477.41,54.284C2565.36,10.593 2617.25,0 2700,0ZM2923.62,841.31C2978.2,839.202 3014.9,810.958 3014.9,727.911C3014.9,693.344 2994.62,675.639 2962.26,675.639C2921.2,675.639 2909.13,700.932 2920.72,722.01C2942.94,761.636 2956.46,799.154 2938.11,804.213C2899.95,814.752 2925.55,697.56 2815.91,694.609C2927.97,673.109 2955.01,626.738 2955.01,581.211C2955.01,543.692 2911.06,516.713 2869.04,516.713C2827.02,516.713 2796.11,533.997 2756.51,533.997C2736.22,533.997 2676.33,522.615 2661.85,522.615C2643.97,522.615 2632.38,530.203 2632.38,542.849C2632.38,556.76 2644.94,557.604 2664.74,580.367C2676.82,594.279 2679.72,625.895 2679.72,661.306L2679.72,702.197C2679.72,737.607 2676.82,769.224 2664.74,783.135C2644.94,805.899 2627.55,802.527 2627.55,822.34C2627.55,833.3 2639.14,840.888 2657.01,840.888C2681.65,840.888 2694.69,837.516 2714.97,837.516C2735.74,837.516 2753.61,840.888 2772.93,840.888C2790.8,840.888 2802.39,833.3 2802.39,822.34C2802.39,802.527 2785,805.899 2765.2,783.135C2755.06,770.91 2751.2,746.038 2750.71,730.019C2750.23,709.785 2759.41,705.569 2780.66,714.843C2841.03,740.558 2816.88,845.104 2923.62,841.31ZM2759.89,669.315C2752.64,670.159 2750.23,668.472 2750.23,661.306C2750.23,606.504 2755.54,575.73 2820.26,565.613C2853.1,560.554 2881.6,571.936 2881.6,595.122C2881.6,637.699 2820.74,661.727 2759.89,669.315ZM2414.56,840.888C2439.19,840.888 2452.23,837.516 2472.52,837.516C2493.29,837.516 2511.16,840.888 2530.47,840.888C2548.35,840.888 2559.94,833.3 2559.94,822.34C2559.94,802.527 2542.55,805.899 2522.75,783.135C2510.67,769.224 2507.78,737.607 2507.78,702.197L2507.78,661.306C2507.78,625.895 2510.67,594.279 2522.75,580.367C2542.55,557.604 2555.11,556.76 2555.11,542.849C2555.11,530.203 2543.51,522.615 2525.64,522.615C2505.84,522.615 2493.29,525.987 2472.52,525.987C2452.23,525.987 2433.88,522.615 2419.39,522.615C2401.52,522.615 2389.93,530.203 2389.93,542.849C2389.93,556.76 2402.49,557.604 2422.29,580.367C2434.36,594.279 2437.26,625.895 2437.26,661.306L2437.26,702.197C2437.26,737.607 2434.36,769.224 2422.29,783.135C2402.49,805.899 2385.1,802.527 2385.1,822.34C2385.1,833.3 2396.69,840.888 2414.56,840.888ZM2978.65,476.02C3002.68,476.02 3014.9,459.158 3014.9,444.825C3014.9,430.492 2989.61,413.209 2965.58,357.985C2944.08,309.085 2953.35,269.037 2971.48,239.528C2990.45,208.755 3008.58,191.893 2989.61,174.609C2974.85,161.119 2945.35,175.452 2913.31,195.265C2908.67,198.216 2906.56,198.216 2901.92,194.422C2871.99,168.286 2841.22,158.59 2791.06,158.59C2734.99,158.59 2714.75,180.511 2714.33,194.843C2713.91,208.333 2729.51,216.343 2748.9,212.549C2777.14,206.647 2820.99,210.019 2842.91,222.666C2849.65,226.46 2849.65,230.676 2842.91,234.47C2732.04,298.546 2656.16,433.865 2710.54,473.912C2751.43,503.843 2862.72,454.099 2898.55,373.582C2901.5,366.838 2905.72,367.259 2906.56,373.582C2914.57,438.502 2939.44,476.02 2978.65,476.02ZM2770.4,408.993C2754.8,398.033 2766.18,363.887 2801.6,319.623C2828.15,286.742 2854.29,268.615 2869.47,258.92C2875.37,255.126 2877.9,255.547 2880.85,261.027C2891.81,283.791 2883.8,317.937 2853.02,359.671C2823.09,400.14 2786,419.953 2770.4,408.993ZM2619.91,478.549C2642.25,478.549 2659.11,465.481 2663.33,424.591C2667.54,383.278 2662.9,345.338 2648.15,342.387C2634.24,339.437 2625.39,353.348 2612.32,375.69C2587.45,417.846 2566.79,438.08 2533.07,438.08C2494.28,438.08 2492.17,406.464 2492.17,364.73L2492.17,298.546C2492.17,263.135 2494.7,231.519 2505.24,217.607C2522.53,194.843 2533.49,194 2533.49,180.089C2533.49,167.442 2523.37,159.854 2507.77,159.854C2490.49,159.854 2479.53,163.227 2461.4,163.227C2443.7,163.227 2427.68,159.854 2415.03,159.854C2399.43,159.854 2389.32,167.442 2389.32,180.089C2389.32,194 2400.28,194.843 2417.56,217.607C2428.1,231.519 2430.63,263.135 2430.63,298.546L2430.63,339.437C2430.63,374.847 2428.1,406.464 2417.56,420.375C2400.28,443.139 2385.1,439.766 2385.1,459.58C2385.1,470.54 2395.22,478.128 2410.81,478.128C2432.31,478.128 2468.99,474.755 2503.56,474.755C2537.7,474.755 2597.56,478.549 2619.91,478.549Z" style="fill:rgb(63,56,48);"/>
            </g>
        </g>
    </g>
</svg>
