<svg width="24px" height="24px" version="1.1" xmlns="http://www.w3.org/2000/svg"
  xmlns:xlink="http://www.w3.org/1999/xlink" xml:space="preserve"
  xmlns:serif="http://www.serif.com/"
  style="fill-rule:evenodd;clip-rule:evenodd;stroke-linejoin:round;stroke-miterlimit:2;">
    <g transform="matrix(2.74484,0,0,2.74484,-15.7989,-15.747)">
        <path fill="currentColor" d="M7.466,6.03C7.556,5.85 7.74,5.737 7.942,5.737C8.143,5.737 8.327,5.85 8.418,6.03L8.865,6.915C8.874,6.933 8.886,6.95 8.9,6.964C8.915,6.978 8.931,6.99 8.949,6.999L9.835,7.447C10.014,7.537 10.128,7.722 10.128,7.923C10.128,8.124 10.014,8.308 9.835,8.399L8.949,8.846C8.931,8.855 8.915,8.867 8.9,8.882C8.886,8.896 8.874,8.912 8.865,8.93L8.418,9.816C8.327,9.995 8.143,10.109 7.942,10.109C7.74,10.109 7.556,9.995 7.466,9.816L7.018,8.93C7.009,8.912 6.997,8.896 6.983,8.882C6.969,8.867 6.952,8.855 6.934,8.846L6.049,8.399C5.869,8.308 5.756,8.124 5.756,7.923C5.756,7.722 5.869,7.537 6.049,7.447L6.934,6.999C6.952,6.99 6.969,6.978 6.983,6.964C6.997,6.95 7.009,6.933 7.018,6.915L7.466,6.03Z"/>
    </g>
</svg>